<svg width="121" height="34" viewBox="0 0 121 34" fill="none" xmlns="http://www.w3.org/2000/svg">
<path d="M3.90001 25.5C3.90001 25.1208 4.04626 24.7417 4.33335 24.4546L7.86501 20.9229C8.0221 20.7658 8.2821 20.7658 8.43918 20.9229C8.59626 21.08 8.59626 21.34 8.43918 21.4971L4.90751 25.0288C4.64751 25.2888 4.64751 25.7113 4.90751 25.9713L8.43918 29.5029C8.59626 29.66 8.59626 29.92 8.43918 30.0771C8.2821 30.2342 8.0221 30.2342 7.86501 30.0771L4.33335 26.5454C4.04626 26.2583 3.90001 25.8792 3.90001 25.5Z" fill="#9A4242"/>
<path d="M9.18572 25.5C9.18572 25.1208 9.33197 24.7417 9.61905 24.4546L13.1507 20.9229C13.3078 20.7658 13.5678 20.7658 13.7249 20.9229C13.882 21.08 13.882 21.34 13.7249 21.4971L10.1932 25.0288C9.93322 25.2888 9.93322 25.7113 10.1932 25.9713L13.7249 29.5029C13.882 29.66 13.882 29.92 13.7249 30.0771C13.5678 30.2342 13.3078 30.2342 13.1507 30.0771L9.61905 26.5454C9.33197 26.2583 9.18572 25.8792 9.18572 25.5Z" fill="#BD8484"/>
<path d="M14.4714 25.5C14.4714 25.1208 14.6177 24.7417 14.9048 24.4546L18.4364 20.9229C18.5935 20.7658 18.8535 20.7658 19.0106 20.9229C19.1677 21.08 19.1677 21.34 19.0106 21.4971L15.4789 25.0288C15.2189 25.2888 15.2189 25.7113 15.4789 25.9713L19.0106 29.5029C19.1677 29.66 19.1677 29.92 19.0106 30.0771C18.8535 30.2342 18.5935 30.2342 18.4364 30.0771L14.9048 26.5454C14.6177 26.2583 14.4714 25.8792 14.4714 25.5Z" fill="#DAB9B9"/>
<path d="M6.59193 9.976C6.14393 10.888 5.91993 11.736 5.91993 12.52C5.91993 13.248 6.09593 13.832 6.44793 14.272C6.80793 14.72 7.35193 14.944 8.07993 14.944H9.36393C9.90793 14.944 10.3319 14.88 10.6359 14.752C10.9399 14.632 11.1559 14.436 11.2839 14.164C11.4119 13.9 11.4759 13.536 11.4759 13.072V9.304H12.4119V10.576C12.4119 11.088 12.5079 11.44 12.6999 11.632C12.8999 11.824 13.1799 11.92 13.5399 11.92C13.9319 11.92 14.2079 11.836 14.3679 11.668C14.5359 11.5 14.6199 11.232 14.6199 10.864V9.304H15.5559V11.008C15.5559 11.328 15.6319 11.56 15.7839 11.704C15.9439 11.84 16.1879 11.912 16.5159 11.92C16.8519 11.912 17.0999 11.836 17.2599 11.692C17.4199 11.548 17.4999 11.348 17.4999 11.092C17.4999 10.884 17.4599 10.56 17.3799 10.12C17.3079 9.672 17.2239 9.244 17.1279 8.836L18.0399 8.596C18.1359 9.004 18.2239 9.452 18.3039 9.94C18.3919 10.428 18.4359 10.808 18.4359 11.08C18.4359 11.4 18.3599 11.708 18.2079 12.004C18.0639 12.3 17.8439 12.54 17.5479 12.724C17.2599 12.908 16.9159 13 16.5159 13C16.2599 13 15.9959 12.94 15.7239 12.82C15.4599 12.692 15.2319 12.496 15.0399 12.232C14.6479 12.744 14.1479 13 13.5399 13C13.0919 13 12.7159 12.868 12.4119 12.604V13.072C12.4119 14 12.1679 14.724 11.6799 15.244C11.1919 15.764 10.4199 16.024 9.36393 16.024H8.07993C7.41593 16.024 6.85193 15.86 6.38793 15.532C5.92393 15.204 5.57193 14.772 5.33193 14.236C5.09993 13.7 4.98393 13.128 4.98393 12.52C4.98393 11.544 5.25593 10.552 5.79993 9.544L6.59193 9.976ZM13.2279 6.508H14.4279V7.708H13.2279V6.508ZM14.3679 4.96H15.5079V6.1H14.3679V4.96ZM15.4359 6.508H16.6359V7.708H15.4359V6.508ZM21.0724 14.944C21.6324 14.944 22.0644 14.876 22.3684 14.74C22.6804 14.612 22.8964 14.412 23.0164 14.14C23.1364 13.868 23.1964 13.508 23.1964 13.06V12.988H21.8764C21.2044 12.988 20.6604 12.788 20.2444 12.388C19.8364 11.988 19.6324 11.428 19.6324 10.708C19.6324 10.22 19.7244 9.776 19.9084 9.376C20.1004 8.976 20.3644 8.66 20.7004 8.428C21.0444 8.196 21.4324 8.08 21.8644 8.08C22.3204 8.08 22.7204 8.192 23.0644 8.416C23.4084 8.632 23.6724 8.94 23.8564 9.34C24.0404 9.74 24.1324 10.196 24.1324 10.708V13.06C24.1324 13.972 23.8884 14.692 23.4004 15.22C22.9204 15.756 22.1444 16.024 21.0724 16.024H19.7884V14.944H21.0724ZM20.5684 10.708C20.5684 11.148 20.6724 11.46 20.8804 11.644C21.0884 11.82 21.4204 11.908 21.8764 11.908H23.1964V10.708C23.1964 10.22 23.0844 9.84 22.8604 9.568C22.6364 9.288 22.3044 9.148 21.8644 9.148C21.4564 9.148 21.1364 9.292 20.9044 9.58C20.6804 9.86 20.5684 10.236 20.5684 10.708ZM28.2884 9.304V11.008C28.2884 11.336 28.3684 11.572 28.5284 11.716C28.6884 11.852 28.9404 11.92 29.2844 11.92H29.4044L29.4764 12.472L29.4044 13H29.2844C28.8764 13 28.5444 12.888 28.2884 12.664V12.688C28.2884 13.768 28.0164 14.592 27.4724 15.16C26.9284 15.736 26.1444 16.024 25.1204 16.024H24.3644V14.944H25.1204C25.9204 14.944 26.4924 14.772 26.8364 14.428C27.1804 14.084 27.3524 13.504 27.3524 12.688V9.304H28.2884ZM29.2849 11.92H31.2049C31.6609 11.92 32.0169 11.896 32.2729 11.848C32.5369 11.792 32.7329 11.708 32.8609 11.596C32.9969 11.476 33.0929 11.308 33.1489 11.092H32.1409C31.7729 11.092 31.4369 11.008 31.1329 10.84C30.8289 10.664 30.5849 10.424 30.4009 10.12C30.2249 9.808 30.1369 9.452 30.1369 9.052C30.1369 8.652 30.2289 8.28 30.4129 7.936C30.5969 7.592 30.8409 7.32 31.1449 7.12C31.4569 6.912 31.7889 6.808 32.1409 6.808C32.5249 6.808 32.8689 6.912 33.1729 7.12C33.4769 7.32 33.7129 7.592 33.8809 7.936C34.0569 8.28 34.1449 8.652 34.1449 9.052V10.276C34.1449 10.884 34.0569 11.388 33.8809 11.788C33.7049 12.18 33.4009 12.48 32.9689 12.688C32.5449 12.896 31.9569 13 31.2049 13H29.2849V11.92ZM31.0729 9.052C31.0729 9.692 31.4289 10.012 32.1409 10.012H33.2089V9.052C33.2089 8.684 33.1169 8.4 32.9329 8.2C32.7569 7.992 32.4929 7.888 32.1409 7.888C31.8129 7.888 31.5529 7.996 31.3609 8.212C31.1689 8.42 31.0729 8.7 31.0729 9.052ZM31.5289 4.552H32.7289V5.752H31.5289V4.552ZM41.1192 7.684C41.6072 8.212 41.9792 8.632 42.2352 8.944C42.4912 9.256 42.6952 9.576 42.8472 9.904C43.0072 10.224 43.0872 10.552 43.0872 10.888C43.0872 11.296 42.9792 11.668 42.7632 12.004C42.5472 12.34 42.2552 12.604 41.8872 12.796C41.5272 12.988 41.1392 13.084 40.7232 13.084C40.2992 13.084 39.9032 12.988 39.5352 12.796C39.1752 12.604 38.8872 12.34 38.6712 12.004C38.4552 11.668 38.3472 11.296 38.3472 10.888C38.3472 10.528 38.4192 10.184 38.5632 9.856C38.7152 9.528 38.8992 9.232 39.1152 8.968C39.3312 8.704 39.6312 8.368 40.0152 7.96L39.7152 7.624L40.4112 6.904L41.1192 7.684ZM39.2832 10.888C39.2832 11.216 39.4112 11.484 39.6672 11.692C39.9312 11.9 40.2832 12.004 40.7232 12.004C41.1552 12.004 41.4992 11.9 41.7552 11.692C42.0192 11.484 42.1512 11.216 42.1512 10.888C42.1512 10.624 42.0472 10.348 41.8392 10.06C41.6312 9.764 41.2552 9.316 40.7112 8.716C40.1912 9.26 39.8232 9.68 39.6072 9.976C39.3912 10.272 39.2832 10.576 39.2832 10.888ZM46.4173 9.304V12.688C46.4173 13.768 46.1453 14.592 45.6013 15.16C45.0573 15.736 44.2733 16.024 43.2493 16.024H42.4933V14.944H43.2493C44.0493 14.944 44.6213 14.772 44.9653 14.428C45.3093 14.084 45.4813 13.504 45.4813 12.688V9.304H46.4173ZM48.0381 5.212H48.9741L48.9861 13H48.0501L48.0381 5.212ZM51.8692 14.956C52.4292 14.956 52.8612 14.888 53.1652 14.752C53.4772 14.624 53.6932 14.424 53.8132 14.152C53.9332 13.88 53.9932 13.52 53.9932 13.072V13H52.6732C52.0012 13 51.4572 12.8 51.0412 12.4C50.6332 12 50.4292 11.44 50.4292 10.72C50.4292 10.232 50.5212 9.788 50.7052 9.388C50.8972 8.988 51.1612 8.672 51.4972 8.44C51.8412 8.208 52.2292 8.092 52.6612 8.092C53.1172 8.092 53.5172 8.204 53.8612 8.428C54.2052 8.652 54.4692 8.964 54.6532 9.364C54.8372 9.756 54.9292 10.208 54.9292 10.72V11.92H55.6012L55.6732 12.472L55.6012 13H54.9292V13.072C54.9292 13.984 54.6852 14.704 54.1972 15.232C53.7172 15.768 52.9412 16.036 51.8692 16.036H50.5852V14.956H51.8692ZM51.3652 10.72C51.3652 11.16 51.4692 11.472 51.6772 11.656C51.8852 11.832 52.2172 11.92 52.6732 11.92H53.9932V10.72C53.9932 10.232 53.8812 9.852 53.6572 9.58C53.4332 9.3 53.1012 9.16 52.6612 9.16C52.2532 9.16 51.9332 9.304 51.7012 9.592C51.4772 9.872 51.3652 10.248 51.3652 10.72ZM58.6683 9.304V11.008C58.6683 11.336 58.7483 11.572 58.9083 11.716C59.0683 11.852 59.3203 11.92 59.6643 11.92H60.1083L60.1683 12.472L60.1083 13H59.6643C59.4083 13 59.1403 12.936 58.8603 12.808C58.5803 12.68 58.3443 12.488 58.1523 12.232C57.9603 12.48 57.7163 12.672 57.4203 12.808C57.1243 12.936 56.8243 13 56.5203 13H55.4763V11.92H56.5203C56.9283 11.92 57.2323 11.836 57.4323 11.668C57.6323 11.5 57.7323 11.232 57.7323 10.864V9.304H58.6683ZM56.4243 6.748H57.6243V7.948H56.4243V6.748ZM65.208 12.232C65.048 12.48 64.84 12.672 64.584 12.808C64.328 12.936 64.044 13 63.732 13C63.444 13 63.156 12.932 62.868 12.796C62.58 12.66 62.36 12.472 62.208 12.232C62.016 12.488 61.792 12.68 61.536 12.808C61.28 12.936 61.008 13 60.72 13H59.988V11.92H60.72C61.112 11.92 61.388 11.844 61.548 11.692C61.708 11.532 61.788 11.256 61.788 10.864V9.304H62.724V10.864C62.724 11.248 62.8 11.52 62.952 11.68C63.112 11.84 63.372 11.92 63.732 11.92C64.1 11.92 64.36 11.84 64.512 11.68C64.672 11.52 64.752 11.248 64.752 10.864V9.304H65.688V10.864C65.688 11.24 65.78 11.512 65.964 11.68C66.148 11.84 66.412 11.92 66.756 11.92C67.116 11.92 67.372 11.84 67.524 11.68C67.676 11.52 67.752 11.248 67.752 10.864V9.304H68.688V10.864C68.688 11.256 68.768 11.532 68.928 11.692C69.088 11.844 69.364 11.92 69.756 11.92H70.488L70.548 12.46L70.488 13H69.756C69.468 13 69.196 12.936 68.94 12.808C68.684 12.68 68.46 12.488 68.268 12.232C68.116 12.472 67.896 12.66 67.608 12.796C67.32 12.932 67.032 13 66.744 13C66.464 13 66.188 12.936 65.916 12.808C65.652 12.672 65.416 12.48 65.208 12.232ZM63.564 6.556H64.764V7.756H63.564V6.556ZM64.704 5.008H65.844V6.148H64.704V5.008ZM65.772 6.556H66.972V7.756H65.772V6.556ZM70.3228 11.92H71.8108C72.3628 11.92 72.8748 11.852 73.3468 11.716C73.8268 11.572 74.2548 11.4 74.6308 11.2C75.0148 11 75.5388 10.7 76.2028 10.3C75.2668 9.908 74.5508 9.62 74.0548 9.436C73.5668 9.252 73.2268 9.16 73.0348 9.16C72.7948 9.16 72.6068 9.216 72.4708 9.328C72.3428 9.432 72.2188 9.648 72.0988 9.976L71.1868 9.688C71.5548 8.616 72.1708 8.08 73.0348 8.08C73.3068 8.08 73.7228 8.184 74.2828 8.392C74.8508 8.6 75.6388 8.916 76.6468 9.34L77.2348 9.58L77.4748 10.72L76.8388 11.116C76.1428 11.556 75.5668 11.9 75.1108 12.148C74.6548 12.396 74.1508 12.6 73.5988 12.76C73.0548 12.92 72.4588 13 71.8108 13H70.3228V11.92ZM73.2868 14.512H74.4868V15.712H73.2868V14.512ZM28.9661 26.324H27.8141L27.6581 20.324H29.1221L28.9661 26.324ZM27.4901 28.304C27.4901 28.048 27.5741 27.832 27.7421 27.656C27.9181 27.48 28.1381 27.392 28.4021 27.392C28.6581 27.392 28.8741 27.48 29.0501 27.656C29.2261 27.832 29.3141 28.048 29.3141 28.304C29.3141 28.56 29.2261 28.78 29.0501 28.964C28.8741 29.14 28.6581 29.228 28.4021 29.228C28.1381 29.228 27.9181 29.14 27.7421 28.964C27.5741 28.788 27.4901 28.568 27.4901 28.304ZM33.0709 21.812C33.3589 22.132 33.6309 22.428 33.8869 22.7C34.5189 23.396 34.9829 23.924 35.2789 24.284C35.5749 24.636 35.8069 24.992 35.9749 25.352C36.1429 25.712 36.2269 26.088 36.2269 26.48C36.2269 26.96 36.1029 27.4 35.8549 27.8C35.6069 28.2 35.2709 28.52 34.8469 28.76C34.4229 28.992 33.9629 29.108 33.4669 29.108C32.9629 29.108 32.4989 28.992 32.0749 28.76C31.6509 28.52 31.3149 28.2 31.0669 27.8C30.8189 27.4 30.6949 26.96 30.6949 26.48C30.6949 25.92 30.8309 25.416 31.1029 24.968C31.3749 24.52 31.7789 24.008 32.3149 23.432C32.2189 23.32 32.0749 23.16 31.8829 22.952L33.0709 21.812ZM32.4229 26.288C32.4229 26.544 32.5069 26.768 32.6749 26.96C32.8509 27.144 33.1149 27.236 33.4669 27.236C33.8109 27.236 34.0669 27.144 34.2349 26.96C34.4109 26.768 34.4989 26.544 34.4989 26.288C34.4989 26.12 34.4229 25.924 34.2709 25.7C34.1269 25.468 33.8549 25.128 33.4549 24.68C33.0629 25.096 32.7909 25.416 32.6389 25.64C32.4949 25.856 32.4229 26.072 32.4229 26.288ZM40.3446 24.872V26.624C40.3446 26.792 40.3886 26.908 40.4766 26.972C40.5726 27.028 40.7246 27.056 40.9326 27.056H41.1966L41.2686 28.04L41.1966 29H40.9326C40.7006 29 40.4966 28.948 40.3206 28.844C40.2166 29.844 39.8606 30.624 39.2526 31.184C38.6446 31.744 37.8206 32.024 36.7806 32.024H36.0246V30.08H36.7806C37.2766 30.08 37.6526 30.028 37.9086 29.924C38.1646 29.82 38.3446 29.636 38.4486 29.372C38.5606 29.116 38.6166 28.744 38.6166 28.256V24.872H40.3446ZM37.3206 21.992H38.8326V23.504H37.3206V21.992ZM38.5086 20.204H39.9366V21.644H38.5086V20.204ZM39.6246 21.992H41.1246V23.504H39.6246V21.992ZM41.0739 27.056H43.5819L43.6899 27.992L43.5819 29H41.0739V27.056ZM43.4528 27.056H45.9608L46.0688 27.992L45.9608 29H43.4528V27.056ZM45.8317 27.056H48.3397L48.4477 27.992L48.3397 29H45.8317V27.056ZM48.2106 27.056H50.7186L50.8266 27.992L50.7186 29H48.2106V27.056ZM50.5896 27.056H53.0976L53.2056 27.992L53.0976 29H50.5896V27.056ZM52.9685 27.056H55.4765L55.5845 27.992L55.4765 29H52.9685V27.056ZM55.3474 27.056H57.8554L57.9634 27.992L57.8554 29H55.3474V27.056ZM57.7263 27.056H60.2343L60.3423 27.992L60.2343 29H57.7263V27.056ZM60.1052 27.056H62.6132L62.7212 27.992L62.6132 29H60.1052V27.056ZM62.4841 27.056H64.9921L65.1001 27.992L64.9921 29H62.4841V27.056ZM64.863 27.056H67.371L67.479 27.992L67.371 29H64.863V27.056ZM67.2299 27.056H68.4539C69.0939 27.056 69.3939 26.84 69.3539 26.408C69.3219 26.048 69.2219 25.404 69.0539 24.476L70.6619 24.068C70.9339 25.22 71.0699 26.06 71.0699 26.588C71.0699 27.012 70.9779 27.408 70.7939 27.776C70.6179 28.136 70.3459 28.432 69.9779 28.664C69.6099 28.888 69.1579 29 68.6219 29H67.2299V27.056ZM66.4859 30.344H67.9979V31.856H66.4859V30.344ZM68.7659 30.344H70.2899V31.856H68.7659V30.344ZM74.025 30.08C74.497 30.08 74.849 30.044 75.081 29.972C75.321 29.908 75.489 29.792 75.585 29.624C75.681 29.456 75.737 29.212 75.753 28.892H74.829C74.029 28.892 73.401 28.664 72.945 28.208C72.497 27.744 72.273 27.1 72.273 26.276C72.273 25.676 72.381 25.152 72.597 24.704C72.813 24.248 73.113 23.896 73.497 23.648C73.889 23.4 74.329 23.276 74.817 23.276C75.345 23.276 75.809 23.4 76.209 23.648C76.609 23.896 76.917 24.248 77.133 24.704C77.357 25.152 77.469 25.676 77.469 26.276V28.628C77.469 29.644 77.193 30.464 76.641 31.088C76.089 31.712 75.217 32.024 74.025 32.024H72.537V30.08H74.025ZM73.905 26.168C73.905 26.456 73.977 26.676 74.121 26.828C74.265 26.972 74.501 27.044 74.829 27.044H75.753V26.228C75.753 25.46 75.441 25.076 74.817 25.076C74.513 25.076 74.285 25.18 74.133 25.388C73.981 25.596 73.905 25.856 73.905 26.168Z" fill="#DE030A"/>
<rect x="86.0714" width="34" height="34" rx="17" fill="#FF4046"/>
<path d="M101.093 27.4117C99.4846 27.1657 97.8086 25.9007 97.1529 24.7094C96.2597 23.0865 96.2712 21.3573 96.5514 19.5767C97.2854 14.9116 96.5468 14.3146 95.7857 13.3871C97.0901 13.9476 98.3083 14.4112 99.1038 15.4062C100.083 12.389 100.354 10.083 104.189 6.46518C104.059 7.31047 103.824 8.16426 103.81 9.02772C103.763 11.7248 105.933 14.1986 106.39 14.8077C107.631 16.4608 108.296 18.2629 108.258 20.2514L108.253 20.5371C108.896 19.9772 109.313 19.0154 109.427 17.7882C110.241 18.8058 110.45 20.6519 110.105 21.9234C109.261 25.0402 107.416 26.6662 104.489 27.3951C103.645 27.6053 102.002 27.5507 101.093 27.4117Z" fill="url(#paint0_linear_2_7433)"/>
<path style="mix-blend-mode:multiply" opacity="0.42" d="M101.093 27.4117C99.4846 27.1657 97.8086 25.9007 97.1529 24.7094C96.2597 23.0865 96.2712 21.3573 96.5514 19.5767C97.2854 14.9116 96.5468 14.3146 95.7857 13.3871C97.0901 13.9476 98.3083 14.4112 99.1038 15.4062C100.083 12.389 100.354 10.083 104.189 6.46518C104.059 7.31047 103.824 8.16426 103.81 9.02772C103.763 11.7248 105.933 14.1986 106.39 14.8077C107.631 16.4608 108.296 18.2629 108.258 20.2514L108.253 20.5371C108.896 19.9772 109.313 19.0154 109.427 17.7882C110.241 18.8058 110.45 20.6519 110.105 21.9234C109.261 25.0402 107.416 26.6662 104.489 27.3951C103.645 27.6053 102.002 27.5507 101.093 27.4117Z" fill="url(#paint1_linear_2_7433)"/>
<path d="M101.08 27.4288C99.9111 27.218 98.6924 26.1332 98.2156 25.1117C97.5662 23.7201 97.5745 22.2374 97.7783 20.7106C98.312 16.7103 97.7749 16.1984 97.2215 15.4031C98.1699 15.8837 99.0558 16.2813 99.6342 17.1344C100.346 14.5472 100.543 12.5699 103.331 9.46771C103.237 10.1925 103.067 10.9246 103.056 11.665C103.022 13.9777 104.64 15.6014 104.972 16.1237C105.875 17.5412 107.098 18.8311 107.102 20.2325C107.107 21.5228 106.232 23.0474 106.237 22.7969C107.003 22.5929 108.667 21.6022 109.086 20.524C109.466 22.3598 108.68 23.7632 108.167 24.5454C107.311 25.8518 106.236 26.7902 104.489 27.3947C103.887 27.603 101.741 27.5481 101.08 27.4288Z" fill="url(#paint2_linear_2_7433)"/>
<path style="mix-blend-mode:multiply" opacity="0.09" d="M101.08 27.4288C99.9111 27.218 98.6924 26.1332 98.2156 25.1117C97.5662 23.7201 97.5745 22.2374 97.7783 20.7106C98.312 16.7103 97.7749 16.1984 97.2215 15.4031C98.1699 15.8837 99.0558 16.2813 99.6342 17.1344C100.346 14.5472 100.543 12.5699 103.331 9.46771C103.237 10.1925 103.067 10.9246 103.056 11.665C103.022 13.9777 104.64 15.6014 104.972 16.1237C105.875 17.5412 107.098 18.8311 107.102 20.2325C107.107 21.5228 106.232 23.0474 106.237 22.7969C107.003 22.5929 108.667 21.6022 109.086 20.524C109.466 22.3598 108.68 23.7632 108.167 24.5454C107.311 25.8518 106.236 26.7902 104.489 27.3947C103.887 27.603 101.741 27.5481 101.08 27.4288Z" fill="url(#paint3_linear_2_7433)"/>
<path d="M101.624 27.4125C100.852 27.2448 100.076 26.7594 99.5471 26.0375C99.0773 25.3965 98.8919 24.3328 99.0773 23.3129C99.3712 21.6961 99.4425 19.5085 99.0773 18.8762C99.7032 19.2583 100.288 19.5744 100.67 20.2527C101.139 18.1958 101.003 16.8568 102.843 14.3904C102.781 14.9666 102.668 15.5487 102.661 16.1374C102.639 17.976 103.679 18.8402 104.192 19.4491C105.189 20.6319 105.785 21.8781 105.788 22.9923C105.791 24.0182 105.372 24.3182 104.872 24.8136C105.599 24.6287 106.105 24.4242 106.565 23.8817C106.736 25.3527 104.872 27.1158 103.476 27.4505C102.8 27.6126 102.06 27.5073 101.624 27.4125Z" fill="url(#paint4_linear_2_7433)"/>
<path style="mix-blend-mode:multiply" opacity="0.31" d="M101.624 27.4125C100.852 27.2448 100.076 26.7594 99.5471 26.0375C99.0773 25.3965 98.8919 24.3328 99.0773 23.3129C99.3712 21.6961 99.4425 19.5085 99.0773 18.8762C99.7032 19.2583 100.288 19.5744 100.67 20.2527C101.139 18.1958 101.003 16.8568 102.843 14.3904C102.781 14.9666 102.668 15.5487 102.661 16.1374C102.639 17.976 103.679 18.8402 104.192 19.4491C105.189 20.6319 105.785 21.8781 105.788 22.9923C105.791 24.0182 105.372 24.3182 104.872 24.8136C105.599 24.6287 106.105 24.4242 106.565 23.8817C106.736 25.3527 104.872 27.1158 103.476 27.4505C102.8 27.6126 102.06 27.5073 101.624 27.4125Z" fill="url(#paint5_linear_2_7433)"/>
<path d="M101.932 27.4437C101.44 27.3317 100.893 27.0254 100.556 26.5432C100.257 26.1149 100.151 25.2952 100.319 24.6234C100.633 23.3668 100.551 22.082 100.319 21.6596C100.718 21.9148 101.09 22.126 101.333 22.5791C101.633 21.205 101.546 20.3105 102.718 18.6628C102.679 19.0478 102.607 19.4367 102.602 19.8299C102.588 21.0582 103.251 21.6355 103.578 22.0423C104.212 22.8324 104.409 23.6649 104.411 24.4093C104.412 25.0946 104.146 25.4699 103.828 25.8008C104.352 25.7709 104.94 25.4631 105.233 25.1007C105.342 26.0834 104.105 27.2589 103.216 27.4824C102.785 27.5908 102.21 27.507 101.932 27.4437Z" fill="url(#paint6_linear_2_7433)"/>
<path style="mix-blend-mode:multiply" opacity="0.42" d="M101.932 27.4437C101.44 27.3317 100.893 27.0254 100.556 26.5432C100.257 26.1149 100.151 25.2952 100.319 24.6234C100.633 23.3668 100.551 22.082 100.319 21.6596C100.718 21.9148 101.09 22.126 101.333 22.5791C101.633 21.205 101.546 20.3105 102.718 18.6628C102.679 19.0478 102.607 19.4367 102.602 19.8299C102.588 21.0582 103.251 21.6355 103.578 22.0423C104.212 22.8324 104.409 23.6649 104.411 24.4093C104.412 25.0946 104.146 25.4699 103.828 25.8008C104.352 25.7709 104.94 25.4631 105.233 25.1007C105.342 26.0834 104.105 27.2589 103.216 27.4824C102.785 27.5908 102.21 27.507 101.932 27.4437Z" fill="url(#paint7_linear_2_7433)"/>
<defs>
<linearGradient id="paint0_linear_2_7433" x1="110.649" y1="6.46518" x2="110.649" y2="27.5347" gradientUnits="userSpaceOnUse">
<stop offset="1e-06" stop-color="#FFA488"/>
<stop offset="1" stop-color="#FD6423"/>
</linearGradient>
<linearGradient id="paint1_linear_2_7433" x1="110.649" y1="6.46518" x2="110.649" y2="27.5347" gradientUnits="userSpaceOnUse">
<stop offset="1e-06" stop-color="white"/>
<stop offset="1" stop-color="white"/>
</linearGradient>
<linearGradient id="paint2_linear_2_7433" x1="109.665" y1="9.46771" x2="109.665" y2="27.5347" gradientUnits="userSpaceOnUse">
<stop stop-color="#FFAC88"/>
<stop offset="1" stop-color="#FEDFE0"/>
</linearGradient>
<linearGradient id="paint3_linear_2_7433" x1="109.665" y1="9.46771" x2="109.665" y2="27.5347" gradientUnits="userSpaceOnUse">
<stop stop-color="white"/>
<stop offset="1" stop-color="white"/>
</linearGradient>
<linearGradient id="paint4_linear_2_7433" x1="106.936" y1="14.3903" x2="106.936" y2="27.5347" gradientUnits="userSpaceOnUse">
<stop stop-color="#FF7214"/>
<stop offset="1" stop-color="#FEC6D8"/>
</linearGradient>
<linearGradient id="paint5_linear_2_7433" x1="106.936" y1="14.3903" x2="106.936" y2="27.5347" gradientUnits="userSpaceOnUse">
<stop stop-color="#FEFEFF"/>
<stop offset="1" stop-color="white"/>
</linearGradient>
<linearGradient id="paint6_linear_2_7433" x1="105.542" y1="18.6628" x2="105.542" y2="27.5347" gradientUnits="userSpaceOnUse">
<stop stop-color="#FFBEE7"/>
<stop offset="1" stop-color="#FFFEFF"/>
</linearGradient>
<linearGradient id="paint7_linear_2_7433" x1="105.542" y1="18.6628" x2="105.542" y2="27.5347" gradientUnits="userSpaceOnUse">
<stop stop-color="#FF7214"/>
<stop offset="1" stop-color="white"/>
</linearGradient>
</defs>
</svg>
