<svg width="14" height="14" viewBox="0 0 14 14" fill="none" xmlns="http://www.w3.org/2000/svg">
<circle cx="7" cy="7" r="3.5" fill="#FF6A29"/>
<path fill-rule="evenodd" clip-rule="evenodd" d="M7.00002 12.8333C10.2217 12.8333 12.8334 10.2217 12.8334 7C12.8334 3.77834 10.2217 1.16666 7.00002 1.16666C3.77836 1.16666 1.16669 3.77834 1.16669 7C1.16669 10.2217 3.77836 12.8333 7.00002 12.8333ZM9.6787 5.51862C9.82704 5.32789 9.79268 5.05302 9.60196 4.90468C9.41123 4.75633 9.13636 4.79069 8.98802 4.98142L6.6506 7.98667C6.59862 8.0535 6.50085 8.06217 6.43793 8.00554L4.95936 6.67483C4.77977 6.51319 4.50314 6.52775 4.3415 6.70735C4.17986 6.88694 4.19442 7.16357 4.37402 7.32521L5.85258 8.65592C6.29308 9.05236 6.97745 8.99165 7.34128 8.52387L9.6787 5.51862Z" fill="#FFCAB2"/>
</svg>
