<svg width="16" height="16" viewBox="0 0 16 16" fill="none" xmlns="http://www.w3.org/2000/svg">
<path d="M14.6667 4.00001V5.61334C14.6667 6.66668 14 7.33334 12.9467 7.33334H10.6667V2.67334C10.6667 1.93334 11.2734 1.33334 12.0134 1.33334C12.74 1.34001 13.4067 1.63334 13.8867 2.11334C14.3667 2.60001 14.6667 3.26668 14.6667 4.00001Z" stroke="#787471" stroke-miterlimit="10" stroke-linecap="round" stroke-linejoin="round"/>
<path d="M1.33331 4.66668V14C1.33331 14.5533 1.95998 14.8667 2.39998 14.5333L3.53998 13.68C3.80665 13.48 4.17998 13.5067 4.41998 13.7467L5.52665 14.86C5.78665 15.12 6.21331 15.12 6.47331 14.86L7.59331 13.74C7.82665 13.5067 8.19998 13.48 8.45998 13.68L9.59998 14.5333C10.04 14.86 10.6666 14.5467 10.6666 14V2.66668C10.6666 1.93334 11.2666 1.33334 12 1.33334H4.66665H3.99998C1.99998 1.33334 1.33331 2.52668 1.33331 4.00001V4.66668Z" stroke="#787471" stroke-miterlimit="10" stroke-linecap="round" stroke-linejoin="round"/>
<path d="M4.17999 9.15334L7.81999 5.51334" stroke="#787471" stroke-linecap="round" stroke-linejoin="round"/>
<path d="M7.94979 8.99999H7.95578" stroke="#787471" stroke-width="1.33333" stroke-linecap="round" stroke-linejoin="round"/>
<path d="M4.12978 5.66668H4.13577" stroke="#787471" stroke-width="1.33333" stroke-linecap="round" stroke-linejoin="round"/>
</svg>
